<svg width="24" height="24" viewBox="0 0 24 24" fill="none" xmlns="http://www.w3.org/2000/svg">
<path d="M16.5832 2.83318C17.7978 2.8368 18.9615 3.32088 19.8203 4.17971C20.6792 5.03853 21.1632 6.2023 21.1669 7.41684V16.5833C21.1632 17.7978 20.6792 18.9615 19.8203 19.8204C18.9615 20.6792 17.7978 21.1632 16.5832 21.1669H7.41684C6.20229 21.1632 5.03852 20.6792 4.1797 19.8204C3.32088 18.9615 2.8368 17.7978 2.83317 16.5833V7.41684C2.8368 6.2023 3.32088 5.03853 4.1797 4.17971C5.03852 3.32088 6.20229 2.8368 7.41684 2.83318H16.5832ZM16.5832 1H7.41684C3.8875 1 1 3.8875 1 7.41684V16.5833C1 20.1125 3.8875 23 7.41684 23H16.5832C20.1126 23 23 20.1125 23 16.5833V7.41684C23 3.8875 20.1126 1 16.5832 1Z" fill="#1B1C57"/>
<path d="M17.9577 7.41721C17.6857 7.41721 17.4199 7.33656 17.1938 7.18547C16.9678 7.03439 16.7915 6.81964 16.6874 6.5684C16.5834 6.31714 16.5561 6.04068 16.6092 5.77396C16.6622 5.50722 16.7932 5.26222 16.9854 5.06993C17.1778 4.87763 17.4228 4.74667 17.6895 4.69361C17.9562 4.64057 18.2327 4.66779 18.4839 4.77187C18.7352 4.87593 18.9499 5.05217 19.101 5.27828C19.2521 5.5044 19.3328 5.77025 19.3328 6.04221C19.3331 6.22287 19.2978 6.40185 19.2288 6.56885C19.1599 6.73584 19.0586 6.88758 18.9309 7.01534C18.8032 7.14309 18.6514 7.24437 18.4844 7.31332C18.3173 7.38229 18.1385 7.41759 17.9577 7.41721ZM11.9996 8.33354C12.7248 8.33354 13.4338 8.5486 14.0368 8.95152C14.6397 9.35443 15.1098 9.92711 15.3873 10.5972C15.6648 11.2672 15.7374 12.0045 15.5959 12.7157C15.4545 13.4271 15.1052 14.0804 14.5924 14.5933C14.0795 15.1061 13.4263 15.4553 12.7149 15.5968C12.0036 15.7383 11.2664 15.6656 10.5963 15.3882C9.9263 15.1106 9.35362 14.6406 8.9507 14.0376C8.54779 13.4345 8.33273 12.7256 8.33273 12.0004C8.33377 11.0282 8.72043 10.0961 9.40787 9.40868C10.0953 8.72124 11.0274 8.33458 11.9996 8.33354ZM11.9996 6.50037C10.9118 6.50037 9.8484 6.82294 8.94393 7.42729C8.03946 8.03164 7.33451 8.89062 6.91822 9.89562C6.50194 10.9006 6.39303 12.0065 6.60524 13.0734C6.81746 14.1403 7.34129 15.1203 8.11048 15.8894C8.87966 16.6586 9.85967 17.1825 10.9266 17.3947C11.9935 17.6069 13.0994 17.498 14.1043 17.0817C15.1093 16.6655 15.9683 15.9605 16.5727 15.0561C17.177 14.1516 17.4995 13.0882 17.4995 12.0004C17.4995 10.5417 16.9201 9.14275 15.8887 8.11129C14.8572 7.07984 13.4583 6.50037 11.9996 6.50037Z" fill="#1B1C57"/>
</svg>
