<svg width="16" height="16" viewBox="0 0 16 16" fill="none" xmlns="http://www.w3.org/2000/svg">
<g clip-path="url(#clip0_20364_1545)">
<path d="M12.1234 2.59627L12.2351 2.48452C12.3192 2.40046 12.4191 2.33379 12.5289 2.28831C12.6388 2.24284 12.7566 2.21945 12.8755 2.21948C12.9944 2.21952 13.1122 2.24297 13.222 2.28851C13.3319 2.33405 13.4317 2.40078 13.5157 2.4849C13.5998 2.56901 13.6665 2.66885 13.7119 2.77873C13.7574 2.88861 13.7808 3.00637 13.7808 3.12529C13.7807 3.2442 13.7573 3.36195 13.7117 3.4718C13.6662 3.58165 13.5995 3.68146 13.5154 3.76552L13.4036 3.87652C13.5948 4.09092 13.6967 4.37032 13.6885 4.65744C13.6802 4.94457 13.5625 5.21767 13.3594 5.42077L5.64036 13.1405C5.59211 13.1885 5.5317 13.2225 5.46561 13.2388L2.46561 13.9888C2.40283 14.0044 2.33707 14.0035 2.27473 13.9862C2.21239 13.9689 2.15558 13.9358 2.10983 13.89C2.06409 13.8443 2.03095 13.7875 2.01365 13.7252C1.99635 13.6628 1.99548 13.5971 2.01111 13.5343L2.76111 10.5343C2.77752 10.4685 2.81148 10.4083 2.85936 10.3603L10.0909 3.12877C10.0185 3.07787 9.93055 3.05417 9.84244 3.06185C9.75434 3.06954 9.67178 3.10812 9.60936 3.17077L7.14036 5.64052C7.1055 5.67539 7.0641 5.70304 7.01855 5.72191C6.97299 5.74078 6.92417 5.7505 6.87486 5.7505C6.82555 5.7505 6.77673 5.74078 6.73117 5.72191C6.68562 5.70304 6.64423 5.67539 6.60936 5.64052C6.5745 5.60566 6.54684 5.56426 6.52797 5.51871C6.5091 5.47315 6.49939 5.42433 6.49939 5.37502C6.49939 5.32571 6.5091 5.27689 6.52797 5.23133C6.54684 5.18578 6.5745 5.14439 6.60936 5.10952L9.07986 2.64052C9.28309 2.43728 9.5564 2.31954 9.84371 2.31145C10.131 2.30336 10.4105 2.40554 10.6249 2.59702C10.8309 2.41285 11.0976 2.31098 11.374 2.31084C11.6503 2.3107 11.9171 2.41231 12.1234 2.59627ZM11.6404 3.17077C11.57 3.10047 11.4747 3.06098 11.3752 3.06098C11.2758 3.06098 11.1804 3.10047 11.1101 3.17077L3.46236 10.817L2.88936 13.1098L5.18211 12.5368L12.8299 4.89052C12.8648 4.85569 12.8925 4.81431 12.9114 4.76875C12.9303 4.72319 12.94 4.67435 12.94 4.62502C12.94 4.5757 12.9303 4.52685 12.9114 4.4813C12.8925 4.43574 12.8648 4.39436 12.8299 4.35952L11.6404 3.17077Z" fill="#8A8FB9"/>
</g>
<defs>
<clipPath id="clip0_20364_1545">
<rect width="12" height="12" fill="white" transform="translate(2 2)"/>
</clipPath>
</defs>
</svg>
