<svg width="24" height="24" viewBox="0 0 24 24" fill="none" xmlns="http://www.w3.org/2000/svg">
<path d="M12.0025 1C5.92655 1 1 5.92435 1 11.9976C1 16.4997 3.71132 20.3685 7.58674 22.0721C7.55727 21.3062 7.58183 20.3832 7.7783 19.5485C7.98951 18.655 9.19291 13.5538 9.19291 13.5538C9.19291 13.5538 8.83925 12.8518 8.83925 11.8159C8.83925 10.1859 9.78232 8.96831 10.9612 8.96831C11.9632 8.96831 12.4446 9.71949 12.4446 10.6179C12.4446 11.6244 11.8011 13.1267 11.472 14.521C11.1969 15.6896 12.0565 16.6372 13.2107 16.6372C15.2934 16.6372 16.6981 13.9614 16.6981 10.7898C16.6981 8.37916 15.0724 6.57733 12.1203 6.57733C8.78523 6.57733 6.70261 9.0665 6.70261 11.8454C6.70261 12.8027 6.9875 13.4803 7.42956 14.0007C7.63094 14.2413 7.66041 14.3394 7.58674 14.6144C7.5327 14.8156 7.41483 15.3017 7.36079 15.4981C7.28712 15.778 7.06118 15.8762 6.81067 15.7731C5.27327 15.1446 4.55615 13.4656 4.55615 11.5704C4.55615 8.4479 7.19379 4.70186 12.42 4.70186C16.6195 4.70186 19.3849 7.7409 19.3849 11.0009C19.3849 15.3164 16.9831 18.5372 13.4465 18.5372C12.2579 18.5372 11.1429 17.894 10.7598 17.1674C10.7598 17.1674 10.1212 19.7007 9.9837 20.1917C9.75284 21.0411 9.29605 21.8856 8.87854 22.5483C9.89131 22.8469 10.9416 22.9991 11.9975 23C18.0735 23 23 18.0756 23 12.0025C23 5.92925 18.0784 1 12.0025 1Z" fill="#1B1C57"/>
</svg>
