<svg width="32" height="32" viewBox="0 0 32 32" fill="none" xmlns="http://www.w3.org/2000/svg">
<rect width="32" height="32" rx="16" fill="white"/>
<rect width="16" height="16" transform="translate(8 8)" fill="white"/>
<path d="M17.7498 14.8334H15.9998V13.0834C15.9998 12.9287 15.9384 12.7803 15.829 12.6709C15.7196 12.5615 15.5712 12.5001 15.4165 12.5001C15.2618 12.5001 15.1134 12.5615 15.004 12.6709C14.8946 12.7803 14.8332 12.9287 14.8332 13.0834V14.8334H13.0832C12.9284 14.8334 12.7801 14.8949 12.6707 15.0043C12.5613 15.1137 12.4998 15.262 12.4998 15.4167C12.4998 15.5714 12.5613 15.7198 12.6707 15.8292C12.7801 15.9386 12.9284 16.0001 13.0832 16.0001H14.8332V17.7501C14.8332 17.9048 14.8946 18.0531 15.004 18.1625C15.1134 18.2719 15.2618 18.3334 15.4165 18.3334C15.5712 18.3334 15.7196 18.2719 15.829 18.1625C15.9384 18.0531 15.9998 17.9048 15.9998 17.7501V16.0001H17.7498C17.9045 16.0001 18.0529 15.9386 18.1623 15.8292C18.2717 15.7198 18.3332 15.5714 18.3332 15.4167C18.3332 15.262 18.2717 15.1137 18.1623 15.0043C18.0529 14.8949 17.9045 14.8334 17.7498 14.8334ZM21.664 20.8359L19.4998 18.6892C20.3399 17.6418 20.7467 16.3123 20.6366 14.9742C20.5266 13.636 19.908 12.3909 18.908 11.4948C17.9081 10.5987 16.6029 10.1198 15.2607 10.1565C13.9185 10.1932 12.6414 10.7428 11.692 11.6922C10.7426 12.6417 10.193 13.9188 10.1563 15.2609C10.1195 16.6031 10.5985 17.9084 11.4945 18.9083C12.3906 19.9082 13.6357 20.5268 14.9739 20.6369C16.3121 20.7469 17.6416 20.3401 18.689 19.5001L20.8357 21.6467C20.8899 21.7014 20.9544 21.7448 21.0255 21.7744C21.0966 21.804 21.1728 21.8193 21.2498 21.8193C21.3268 21.8193 21.4031 21.804 21.4742 21.7744C21.5452 21.7448 21.6098 21.7014 21.664 21.6467C21.7691 21.538 21.8279 21.3926 21.8279 21.2413C21.8279 21.09 21.7691 20.9447 21.664 20.8359ZM15.4165 19.5001C14.6089 19.5001 13.8194 19.2606 13.1479 18.8119C12.4764 18.3632 11.953 17.7255 11.644 16.9794C11.3349 16.2332 11.2541 15.4122 11.4116 14.6201C11.5692 13.828 11.9581 13.1004 12.5291 12.5294C13.1002 11.9583 13.8278 11.5694 14.6199 11.4119C15.412 11.2543 16.233 11.3352 16.9791 11.6442C17.7252 11.9533 18.363 12.4767 18.8117 13.1482C19.2603 13.8197 19.4998 14.6091 19.4998 15.4167C19.4998 16.4997 19.0696 17.5383 18.3038 18.3041C17.5381 19.0699 16.4995 19.5001 15.4165 19.5001Z" fill="#7E33E0"/>
</svg>
