<svg width="24" height="24" viewBox="0 0 24 24" fill="none" xmlns="http://www.w3.org/2000/svg">
<path d="M23 5.13282C22.1747 5.49955 21.3016 5.74115 20.4081 5.85C21.347 5.28768 22.0532 4.39433 22.3941 3.33751C21.5063 3.86841 20.5367 4.24092 19.5267 4.43907C19.1015 3.98322 18.5899 3.62059 18.0233 3.3732C17.4568 3.12581 16.8469 2.99884 16.2309 3.00001C13.7366 3.00001 11.7181 5.03438 11.7181 7.54219C11.7163 7.89102 11.7554 8.23881 11.8345 8.57813C10.046 8.49238 8.2946 8.02574 6.69248 7.2081C5.09036 6.39044 3.67276 5.23977 2.53037 3.82969C2.12959 4.52069 1.91764 5.30909 1.91666 6.11251C1.91666 7.68751 2.72013 9.0797 3.93333 9.89532C3.21454 9.87787 2.51048 9.6833 1.88092 9.32813V9.38438C1.88092 11.5875 3.43925 13.4203 5.50175 13.8375C5.1139 13.9432 4.71423 13.9968 4.31283 13.9969C4.02802 13.9974 3.74384 13.9691 3.46446 13.9125C4.03783 15.7172 5.70662 17.0297 7.68341 17.0672C6.07713 18.3332 4.10503 19.0176 2.07708 19.0125C1.71712 19.012 1.35748 18.99 1 18.9469C3.06304 20.2941 5.46115 21.0068 7.9089 21C16.2213 21 20.7624 14.0765 20.7624 8.07188C20.7624 7.87501 20.7573 7.67813 20.7482 7.48594C21.6296 6.84472 22.3921 6.04787 23 5.13282Z" fill="#1B1C57"/>
</svg>
