<svg width="14" height="14" viewBox="0 0 14 14" fill="none" xmlns="http://www.w3.org/2000/svg">
<path d="M10.1967 14H10.2164C10.586 14 10.9353 13.8544 11.1999 13.5898L13.0984 11.6913C13.1634 11.6263 13.215 11.5492 13.2503 11.4643C13.2855 11.3793 13.3036 11.2883 13.3036 11.1964C13.3036 11.1044 13.2855 11.0134 13.2503 10.9285C13.215 10.8435 13.1634 10.7664 13.0984 10.7014L10.2983 7.90129C10.2333 7.83623 10.1562 7.78461 10.0712 7.74939C9.98631 7.71417 9.89527 7.69604 9.80333 7.69604C9.7114 7.69604 9.62036 7.71417 9.53544 7.74939C9.45052 7.78461 9.37337 7.83623 9.30842 7.90129L8.19257 9.01715C7.67525 8.86314 6.70991 8.51313 6.09809 7.90129C5.48627 7.28946 5.13625 6.32412 4.98225 5.80679L6.09809 4.69093C6.16315 4.62598 6.21477 4.54883 6.24999 4.46391C6.28521 4.37898 6.30334 4.28795 6.30334 4.19601C6.30334 4.10407 6.28521 4.01304 6.24999 3.92811C6.21477 3.84319 6.16315 3.76604 6.09809 3.70109L3.29798 0.900945C3.16415 0.774625 2.98709 0.704259 2.80306 0.704259C2.61903 0.704259 2.44197 0.774625 2.30814 0.900945L0.410368 2.79944C0.144357 3.06545 -0.00544863 3.43087 0.000151587 3.80399C0.0162522 4.80084 0.280162 8.26321 3.00887 10.9919C5.73758 13.7207 9.19991 13.9839 10.1967 14ZM2.80376 2.38572L4.61403 4.19601L3.7089 5.10115C3.62653 5.1833 3.56602 5.28474 3.53288 5.39625C3.49975 5.50776 3.49504 5.62579 3.51919 5.73959C3.53599 5.82009 3.94691 7.72909 5.10895 8.89114C6.271 10.0532 8.17997 10.4641 8.26047 10.4809C8.37426 10.5052 8.49233 10.5006 8.60386 10.4674C8.71539 10.4343 8.81683 10.3737 8.8989 10.2912L9.80403 9.38607L11.6143 11.1964L10.21 12.5999C9.33642 12.5852 6.3473 12.3507 3.99871 10.0014C1.64242 7.64508 1.41421 4.64543 1.40021 3.78929L2.80376 2.38572ZM12.5999 6.29961H14C14 2.70844 11.2888 0 7.69275 0V1.40007C10.5363 1.40007 12.5999 3.46027 12.5999 6.29961Z" fill="white"/>
</svg>
