<svg width="14" height="14" viewBox="0 0 14 14" fill="none" xmlns="http://www.w3.org/2000/svg">
<path d="M0 0.600079C0 0.440928 0.0632223 0.288295 0.175759 0.175759C0.288295 0.0632223 0.440928 0 0.600078 0H1.04654C1.80664 0 2.2627 0.511267 2.52273 0.986529C2.69635 1.30337 2.82197 1.67062 2.92038 2.00346C2.947 2.00136 2.97369 2.00029 3.00039 2.00026H13.0001C13.6642 2.00026 14.1442 2.63554 13.9618 3.27483L12.4992 8.4027C12.3681 8.86264 12.0907 9.26733 11.709 9.5555C11.3272 9.84366 10.862 9.9996 10.3838 9.99971H5.62474C5.14267 9.99973 4.67393 9.84143 4.29058 9.54914C3.90723 9.25686 3.63047 8.84677 3.50286 8.3819L2.89478 6.16401L1.88665 2.76516L1.88585 2.75876C1.76103 2.3051 1.64421 1.88025 1.46979 1.5634C1.30257 1.25536 1.16815 1.20016 1.04734 1.20016H0.600078C0.440928 1.20016 0.288295 1.13693 0.175759 1.0244C0.0632223 0.911862 0 0.759229 0 0.600079ZM4.05893 5.87277L4.65981 8.06426C4.77983 8.49791 5.17428 8.79955 5.62474 8.79955H10.3838C10.6012 8.79955 10.8126 8.72871 10.9862 8.59777C11.1597 8.46682 11.2858 8.2829 11.3455 8.07386L12.7353 3.20042H3.26843L4.04773 5.83036L4.05893 5.87277Z" fill="white"/>
<path d="M6.801 12.4017C6.801 12.8261 6.63241 13.2331 6.33231 13.5332C6.03222 13.8333 5.6252 14.0019 5.2008 14.0019C4.77639 14.0019 4.36937 13.8333 4.06928 13.5332C3.76918 13.2331 3.60059 12.8261 3.60059 12.4017C3.60059 11.9773 3.76918 11.5703 4.06928 11.2702C4.36937 10.9701 4.77639 10.8015 5.2008 10.8015C5.6252 10.8015 6.03222 10.9701 6.33231 11.2702C6.63241 11.5703 6.801 11.9773 6.801 12.4017ZM5.60085 12.4017C5.60085 12.2956 5.5587 12.1939 5.48368 12.1188C5.40865 12.0438 5.3069 12.0017 5.2008 12.0017C5.09469 12.0017 4.99294 12.0438 4.91792 12.1188C4.84289 12.1939 4.80074 12.2956 4.80074 12.4017C4.80074 12.5078 4.84289 12.6096 4.91792 12.6846C4.99294 12.7596 5.09469 12.8018 5.2008 12.8018C5.3069 12.8018 5.40865 12.7596 5.48368 12.6846C5.5587 12.6096 5.60085 12.5078 5.60085 12.4017Z" fill="white"/>
<path d="M12.4016 12.4017C12.4016 12.8261 12.233 13.2331 11.9329 13.5332C11.6328 13.8333 11.2258 14.0019 10.8014 14.0019C10.377 14.0019 9.96996 13.8333 9.66986 13.5332C9.36977 13.2331 9.20117 12.8261 9.20117 12.4017C9.20117 11.9773 9.36977 11.5703 9.66986 11.2702C9.96996 10.9701 10.377 10.8015 10.8014 10.8015C11.2258 10.8015 11.6328 10.9701 11.9329 11.2702C12.233 11.5703 12.4016 11.9773 12.4016 12.4017ZM11.2014 12.4017C11.2014 12.2956 11.1593 12.1939 11.0843 12.1188C11.0092 12.0438 10.9075 12.0017 10.8014 12.0017C10.6953 12.0017 10.5935 12.0438 10.5185 12.1188C10.4435 12.1939 10.4013 12.2956 10.4013 12.4017C10.4013 12.5078 10.4435 12.6096 10.5185 12.6846C10.5935 12.7596 10.6953 12.8018 10.8014 12.8018C10.9075 12.8018 11.0092 12.7596 11.0843 12.6846C11.1593 12.6096 11.2014 12.5078 11.2014 12.4017Z" fill="white"/>
</svg>
