<svg width="16" height="16" viewBox="0 0 16 16" fill="none" xmlns="http://www.w3.org/2000/svg">
<path d="M12.9 2H3.1C2.54305 2 2.0089 2.23705 1.61508 2.65901C1.22125 3.08097 1 3.65326 1 4.25V11.75C1 12.3467 1.22125 12.919 1.61508 13.341C2.0089 13.7629 2.54305 14 3.1 14H12.9C13.457 14 13.9911 13.7629 14.3849 13.341C14.7788 12.919 15 12.3467 15 11.75V4.25C15 3.65326 14.7788 3.08097 14.3849 2.65901C13.9911 2.23705 13.457 2 12.9 2ZM3.1 3.5H12.9C13.0857 3.5 13.2637 3.57902 13.395 3.71967C13.5263 3.86032 13.6 4.05109 13.6 4.25L8 7.91L2.4 4.25C2.4 4.05109 2.47375 3.86032 2.60503 3.71967C2.7363 3.57902 2.91435 3.5 3.1 3.5ZM13.6 11.75C13.6 11.9489 13.5263 12.1397 13.395 12.2803C13.2637 12.421 13.0857 12.5 12.9 12.5H3.1C2.91435 12.5 2.7363 12.421 2.60503 12.2803C2.47375 12.1397 2.4 11.9489 2.4 11.75V5.96L7.636 9.3875C7.74241 9.45333 7.86312 9.48798 7.986 9.48798C8.10888 9.48798 8.22959 9.45333 8.336 9.3875L13.6 5.96V11.75Z" fill="#101750"/>
</svg>
